# xmcd
#
# Track frame offsets:
#  182
#  21907
#  39015
#  55755
#  74642
#  92670
#  112090
#  127577
#  140965
#  158657
#
# Disc length: 2467 seconds
#
# Revision: 6
# Processed by: cddbd v1.5.1PL2 Copyright (c) Steve Scherf et al.
# Submitted via: Collectorz.com_Music_Collector 6.11
#
DISCID=8309a10a
DTITLE=R.L. Burnside - Too Bad Jim
DYEAR=1994
DGENRE=Blues
TTITLE0=Shake 'em On Down
TTITLE1=When My First Wife Left Me
TTITLE2=Short-Haired Woman
TTITLE3=Old Black Mattie
TTITLE4=Fireman Ring The Bell
TTITLE5=Peaches
TTITLE6=Miss Glory B.
TTITLE7=44 Pistol
TTITLE8=Death Bell Blues
TTITLE9=Goin' Down South
EXTD=
EXTT0=
EXTT1=
EXTT2=
EXTT3=
EXTT4=
EXTT5=
EXTT6=
EXTT7=
EXTT8=
EXTT9=
PLAYORDER=
